<svg width="21" height="21" viewBox="0 0 21 21" fill="none" xmlns="http://www.w3.org/2000/svg">
<g clip-path="url(#clip0_1062_3957)">
<path d="M21 10.5625C21 15.8027 17.1552 20.147 12.1363 20.9353V13.6174H14.5764L15.0407 10.5903H12.1363V8.62596C12.1363 7.7976 12.5421 6.9905 13.8429 6.9905H15.1634V4.41336C15.1634 4.41336 13.9648 4.20883 12.819 4.20883C10.4272 4.20883 8.86372 5.65857 8.86372 8.28316V10.5903H6.20477V13.6174H8.86372V20.9353C3.84566 20.1462 0 15.8023 0 10.5625C0 4.76353 4.70103 0.0625 10.5 0.0625C16.299 0.0625 21 4.76353 21 10.5625Z" fill="white"/>
</g>
<defs>
<clipPath id="clip0_1062_3957">
<rect width="21" height="21" fill="white"/>
</clipPath>
</defs>
</svg>
