<svg width="21" height="21" viewBox="0 0 21 21" fill="none" xmlns="http://www.w3.org/2000/svg">
<g clip-path="url(#clip0_1062_3960)">
<path d="M10.5 1.89189C13.3036 1.89189 13.6357 1.90259 14.7429 1.95308C15.887 2.00529 17.0662 2.2664 17.8998 3.1C18.7414 3.94156 18.9945 5.10919 19.0469 6.25706C19.0974 7.36427 19.1081 7.69634 19.1081 10.5C19.1081 13.3036 19.0974 13.6357 19.0469 14.7429C18.995 15.8811 18.7286 17.0711 17.9 17.8998C17.0579 18.7418 15.8918 18.9944 14.7429 19.0469C13.6358 19.0974 13.3038 19.1081 10.5 19.1081C7.69613 19.1081 7.36411 19.0974 6.25702 19.0469C5.12757 18.9953 3.92204 18.7218 3.10012 17.9C2.263 17.0628 2.00513 15.8843 1.95304 14.7429C1.90251 13.6356 1.89185 13.3036 1.89185 10.5C1.89185 7.69634 1.90255 7.36423 1.95304 6.25702C2.0048 5.12285 2.27448 3.92565 3.09996 3.10012C3.93992 2.26013 5.11137 2.00534 6.25702 1.95304C7.36427 1.90259 7.69638 1.89189 10.5 1.89189ZM10.5 0C7.64839 0 7.29081 0.0120586 6.17084 0.0631641C4.54712 0.137279 2.93598 0.588697 1.76232 1.76228C0.584268 2.94033 0.137197 4.54835 0.0631641 6.17088C0.0120586 7.29081 0 7.64835 0 10.5C0 13.3517 0.0120586 13.7092 0.0631641 14.8292C0.137156 16.4503 0.591035 18.0664 1.76228 19.2376C2.93889 20.4143 4.55019 20.8628 6.17084 20.9368C7.29081 20.9879 7.64839 21 10.5 21C13.3517 21 13.7092 20.9879 14.8292 20.9368C16.4511 20.8628 18.0653 20.41 19.2377 19.2377C20.4162 18.0593 20.8628 16.452 20.9368 14.8292C20.9879 13.7092 21 13.3517 21 10.5C21 7.64839 20.9879 7.29081 20.9368 6.17084C20.8628 4.54802 20.4105 2.93516 19.2377 1.76236C18.0628 0.587385 16.4469 0.136992 14.8291 0.0631641C13.7092 0.0120586 13.3517 0 10.5 0Z" fill="white"/>
<path d="M10.5013 5.10938C7.52343 5.10938 5.10938 7.52339 5.10938 10.5013C5.10938 13.4791 7.52343 15.8932 10.5013 15.8932C13.4791 15.8932 15.8932 13.4791 15.8932 10.5013C15.8932 7.52343 13.4791 5.10938 10.5013 5.10938ZM10.5013 14.0013C8.5683 14.0013 7.0013 12.4343 7.0013 10.5013C7.0013 8.56831 8.5683 7.0013 10.5013 7.0013C12.4343 7.0013 14.0013 8.56831 14.0013 10.5013C14.0013 12.4343 12.4343 14.0013 10.5013 14.0013Z" fill="white"/>
<path d="M16.1037 6.15281C16.7996 6.15281 17.3637 5.58869 17.3637 4.89281C17.3637 4.19693 16.7996 3.63281 16.1037 3.63281C15.4079 3.63281 14.8438 4.19693 14.8438 4.89281C14.8438 5.58869 15.4079 6.15281 16.1037 6.15281Z" fill="white"/>
</g>
<defs>
<clipPath id="clip0_1062_3960">
<rect width="21" height="21" fill="white"/>
</clipPath>
</defs>
</svg>
