<svg width="21" height="21" viewBox="0 0 21 21" fill="none" xmlns="http://www.w3.org/2000/svg">
<path fill-rule="evenodd" clip-rule="evenodd" d="M17.9014 3.05181C15.9367 1.08482 13.324 0.00114844 10.5402 0C4.80457 0 0.136371 4.66787 0.134115 10.4053C0.133336 12.2394 0.612522 14.0296 1.52315 15.6077L0.046875 21L5.56331 19.5529C7.08323 20.382 8.79453 20.8189 10.5361 20.8195H10.5404C10.5407 20.8195 10.5401 20.8195 10.5404 20.8195C16.2755 20.8195 20.9441 16.1512 20.9464 10.4136C20.9475 7.63313 19.8661 5.01867 17.9014 3.05181ZM10.5404 19.0621H10.5368C8.98484 19.0615 7.46263 18.6445 6.1347 17.8565L5.81888 17.669L2.54534 18.5278L3.4191 15.3361L3.21345 15.0088C2.34765 13.6318 1.89036 12.0402 1.89106 10.406C1.89295 5.63723 5.77299 1.75752 10.5438 1.75752C12.854 1.7583 15.0256 2.65917 16.6586 4.29401C18.2915 5.92881 19.1903 8.1019 19.1894 10.4129C19.1875 15.1821 15.3075 19.0621 10.5404 19.0621ZM15.2846 12.5844C15.0246 12.4542 13.7462 11.8253 13.5078 11.7384C13.2695 11.6517 13.0962 11.6083 12.9228 11.8685C12.7495 12.1288 12.2512 12.7145 12.0995 12.8881C11.9479 13.0615 11.7962 13.0833 11.5362 12.9531C11.2762 12.823 10.4384 12.5484 9.44528 11.6625C8.6723 10.9731 8.1505 10.1216 7.99882 9.8613C7.84715 9.60102 7.98266 9.46034 8.11281 9.33069C8.22978 9.21416 8.37284 9.02696 8.50282 8.87517C8.63284 8.72337 8.67616 8.61484 8.76282 8.44143C8.84949 8.26785 8.80617 8.11601 8.74116 7.98591C8.67616 7.85576 8.15616 6.57591 7.93951 6.05526C7.72845 5.54835 7.5141 5.61697 7.35451 5.60893C7.20304 5.60138 7.0295 5.59978 6.85617 5.59978C6.68284 5.59978 6.40114 5.66483 6.1628 5.92512C5.92446 6.18544 5.25278 6.8145 5.25278 8.09423C5.25278 9.37408 6.18446 10.6105 6.31447 10.784C6.44445 10.9576 8.14792 13.5838 10.7562 14.7101C11.3765 14.978 11.8609 15.138 12.2385 15.2578C12.8613 15.4557 13.4282 15.4278 13.8762 15.3608C14.3758 15.2862 15.4145 14.7319 15.6312 14.1245C15.8478 13.517 15.8478 12.9965 15.7829 12.8881C15.7179 12.7796 15.5446 12.7146 15.2846 12.5844Z" fill="white"/>
</svg>
